<?xml version="1.0" encoding="UTF-8"?>
<!DOCTYPE svg PUBLIC "-//W3C//DTD SVG 1.1//EN" "http://www.w3.org/Graphics/SVG/1.1/DTD/svg11.dtd">
<!-- Creator: CorelDRAW 2020 (64 Bit) -->
<svg xmlns="http://www.w3.org/2000/svg" xml:space="preserve" width="43.3492mm" height="43.3492mm" version="1.1" style="shape-rendering:geometricPrecision; text-rendering:geometricPrecision; image-rendering:optimizeQuality; fill-rule:evenodd; clip-rule:evenodd"
viewBox="0 0 4334.92 4334.92"
 xmlns:xlink="http://www.w3.org/1999/xlink"
 xmlns:xodm="http://www.corel.com/coreldraw/odm/2003">
 <defs>
  <style type="text/css">
   <![CDATA[
    .fil1 {fill:#FEFEFE}
    .fil2 {fill:#F79148}
    .fil0 {fill:url(#id0)}
   ]]>
  </style>
  <radialGradient id="id0" gradientUnits="userSpaceOnUse" gradientTransform="matrix(2.5008 0.122845 -0.0792268 2.55344 -3098 -3106)" cx="2160.89" cy="1828.69" r="1938.86" fx="2160.89" fy="1828.69">
   <stop offset="0" style="stop-opacity:1; stop-color:#5636D3"/>
   <stop offset="0.631373" style="stop-opacity:1; stop-color:#AB5F7F"/>
   <stop offset="1" style="stop-opacity:1; stop-color:#FF872C"/>
  </radialGradient>
 </defs>
 <g id="Camada_x0020_1">
  <metadata id="CorelCorpID_0Corel-Layer"/>
  <g id="_2118804652064">
   <circle class="fil0" cx="2160.89" cy="1828.69" r="950.42"/>
   <path class="fil1" d="M1751.22 846.21c-4.03,2.73 -81.1,36.75 -103.92,49.92 -34.35,19.83 -65.31,37.3 -95.71,59.09 -32.4,23.21 -80.76,58.24 -107.91,85.09 -6.97,6.89 -13.69,10.98 -20.1,18.14l-38 38.42c-19.21,17.86 -57.11,63.74 -72.02,82.74 -66.33,84.56 -126.93,194.12 -162.76,299.71 -101.2,298.27 -74.08,606.35 80.33,880.02 20.46,36.25 44.63,67.77 59.14,93.14l230.24 102.86c13.8,6.62 18.89,1.18 33,-5.82 -0.33,-1.54 -74.63,-70.79 -88.58,-87.68l-41.1 -48.8c-13.04,-15.8 -25.24,-32.77 -37.27,-50.6 -167.14,-247.61 -214.84,-551.33 -112.99,-840.57 103.92,-295.13 353.3,-521 645.34,-594.89 28.55,-7.23 123.41,-29.34 149.95,-25.66 10.87,-7.18 129.49,-4.46 150.6,-2.67 169.42,14.3 327.04,64.8 464.29,161l34.63 24.67c20.96,16.01 77.6,63.33 94.42,81.26l90.53 104.27c91.12,121.23 169.8,293.84 184.49,478.35 15.73,197.48 -23.4,356.16 -101.24,515.07l40.68 -1.01 104.94 -2.22c86.98,-202.85 117.63,-434.67 61.9,-669.45 -44.35,-186.84 -123.52,-327.39 -241.68,-467.27 -15.91,-18.83 -41.75,-41.93 -60.08,-62.18l-52.59 -46.81c-111.39,-96.92 -270.12,-176.98 -417.96,-214.57 -175.21,-44.55 -346.37,-44.33 -522.93,-1.73 -26.03,6.28 -50.22,13.91 -75.53,21.89 -25,7.89 -48.08,19.09 -72.11,26.29z"/>
   <path class="fil2" d="M2173.75 1959.54c2.89,-2.44 4.47,1.24 2.41,-15.13 -0.59,-4.76 -1.12,-9.13 -1.58,-13.92l-19.33 -199.3 -0.19 -0.72c-19.96,-9.67 -45.2,-27.48 -61.63,-40.01 -39.74,-30.31 -82.7,-75.52 -31.85,-121.3 19.12,-17.22 44.64,-20.35 75.65,-22.94l-23.41 -241.47 -73.34 2.03 0.62 107.63c-81.06,10.35 -148.04,49.09 -180.91,96.67 -40.54,58.67 -46.76,150.77 -10.59,220.68 17.19,33.23 38.7,53.88 64.96,74.54 64.47,50.73 143.66,89.63 214.99,128.98 14.5,8 30.58,15.38 44.2,24.26z"/>
   <path class="fil2" d="M2169.73 1957.39c0.7,0.6 20.3,11.82 34.33,23.24 15.9,12.93 33.65,26.41 40.79,49.29 6.58,21.05 -2.06,45.63 -12,58.23 -10.8,13.7 -24.11,21.23 -43.43,28.65l23.85 247.41 32.23 -0.75 -0.33 -108.04c77.03,-11.31 141.52,-44.53 178.27,-87.56 42.2,-49.41 61.38,-131.47 27.84,-205.04 -41.68,-91.45 -167.84,-164.35 -256.29,-209.98 -15.04,-7.75 -29.18,-16.59 -43.76,-23.8l19.32 199.3c0.46,4.79 1,9.16 1.59,13.91 2.05,16.38 0.47,12.7 -2.41,15.14z"/>
   <path class="fil2" d="M2217.3 2366.36l-23.85 -247.41c-44.84,10.08 -100,8.01 -128.97,-17.31 -30.13,-26.33 -30.85,-93.61 -31.46,-128.24l-207.65 1.67c-7.32,29.58 0.87,88.92 7.77,117.18 8.52,34.89 23.74,62.97 42.23,85.77 47.7,58.84 108.44,67.6 173.2,82.29l1.15 107.4 167.58 -1.35z"/>
   <path class="fil2" d="M2133.87 1544.86c2.33,0.16 6.56,0.18 8.63,0.44 5.51,0.7 -1.64,-0.58 3.57,0.58 4.48,0.98 2.23,0.34 4.39,1.56 22.52,-4.9 58.59,12.66 74.87,35.03 18.8,25.85 19.63,56.87 20.3,92.86l204.5 -2c0,-73.68 -15,-141.48 -53.37,-183.79 -41.02,-45.24 -80.73,-62.49 -158.04,-78.91l-1.31 -108.59 -126.55 0.13c-13.62,-0.74 -25.68,0.41 -39.09,0.58 -8,0.1 -28.46,-2.71 -34.65,2.66l73.34 -2.03 23.41 241.48z"/>
   <g>
    <path class="fil2" d="M3574.33 2393.68c88.73,-132.52 207.88,-88.81 345.49,-85.29l79.48 5.76c22.07,2.99 61.14,3.55 83.22,6.52 30.26,4.05 48.23,1.78 77.66,7.57 21.54,4.25 50.14,14.69 65.66,24.06 37.81,22.83 66.96,51.4 87.36,92.11 38.42,76.7 16.13,225.5 6.52,313.32l-23.07 371.73c-1.02,19.84 -4.08,18.63 -4.59,40.27l-8.98 125.62c-2.1,88.03 -10.89,167.68 -85.04,224.51 -87.85,67.35 -158.48,47.82 -251.59,40.52l-289.67 -19.89c-25.72,-3.98 -48.24,-11.81 -67.6,-22.13 -23.64,-12.6 -31.88,-22.46 -49.67,-40.06 -20.58,-20.39 -23.5,-27.31 -36.97,-52.76 -94.37,0 -181.25,8.71 -273.81,8.82 -28.39,0.03 -37.29,4.9 -67.05,4.74 -28.82,-0.15 -45.71,1.22 -68.05,3.73l-277.65 9.48c-28.39,0.03 -37.29,4.9 -67.04,4.74 -28.83,-0.15 -45.72,1.22 -68.05,3.72 -22.03,2.48 -48.66,-0.16 -71.28,0.51l-408.29 17.92c-26.37,0.32 -36.83,4.93 -67.06,4.72l-206.43 8.92c-29.76,-0.22 -44.06,3.26 -67.27,4.5 -264.41,14.21 -381.39,-34.6 -566.69,-137.71l-271.39 -159.3c-281.42,-168.71 -575.81,-336.19 -860.38,-503.47 -17.07,-10.04 -27.53,-16.98 -45.24,-26.55 -93.29,-50.42 -148.47,-147.05 -97.38,-251.36 37.83,-77.21 117.81,-109.38 207.21,-87.27 98.68,24.4 200.13,80.9 290.93,126.3 48.58,24.3 88.25,45.94 134.65,71.72 110.75,61.5 221.36,123.94 326.25,194.17 23.35,15.63 40.72,28.87 64.6,43.08 22.76,13.54 42.45,23.67 65.59,37.59l70.47 32.71c50.74,19.23 108.39,31.83 168.68,42.19 144.77,24.86 225.17,33.48 365.9,51.32 32.22,4.09 65.21,6.6 93.62,9.57l241.82 18.39c17.19,1.42 36.34,-0.71 53.62,0.21 19.96,1.08 21.52,4.41 44.67,4.69l255.43 8.33c83.14,-8.74 69.93,-93.44 13.43,-102.22l-430.04 -41.03c-55.93,-3.77 -119.5,-13.1 -175.47,-17.45 -118.71,-9.22 -231.22,-23.08 -349.26,-32.07 -99.92,-7.62 -188.76,-103.13 -188.76,-192.59l0 -26.92c0,-88.48 81.59,-167.49 155.85,-185.12 27.46,-6.51 200.95,-3.54 252.47,-3.24 33.45,0.19 47.2,-4.8 80.64,-4.61 113.6,0.65 227.39,0.05 341.02,0.06 59.36,0.01 104.61,-4.49 165.99,-4.49 305.88,0 322.42,-66.19 592.94,-93.48l119.74 -5.88c166.22,-18.86 445.77,52.94 592.86,130.77z"/>
    <path class="fil2" d="M1009.33 2495.3c-20.19,86.66 -17.95,62.98 -17.95,157.02l-653.47 -360.44c-17.54,-7.82 -35.2,-13.37 -50.89,-20.9 3.34,-9.23 6.38,-11.96 17.93,-17.96 5.73,-2.98 17.94,-7.6 25.62,-10.27 90.12,-31.34 151.15,3.66 233.97,37.84 24.9,10.28 47.92,21.46 75.01,32.66 14.95,6.18 22.1,11.19 36.49,17.35 16.76,7.17 24.34,10.13 40.15,18.17l293.14 146.53z"/>
    <path class="fil2" d="M1090.31 2326.05c-6.51,24.4 -13.56,10.92 -46.05,43.68 -13.91,14.02 -38.56,31.38 -43.68,50.54 -16.57,-3.86 -35.71,-19.12 -51.87,-28.88l-54.56 -30.68c-27.16,-13.06 -328.68,-140.53 -355.66,-146.81 4.07,-15.25 6.82,-14.03 35.88,-26.93 68.44,-30.38 134.07,-6.58 193.56,17.32 37.06,14.88 69.19,25.43 108.77,39.28l213.61 82.48z"/>
   </g>
  </g>
 </g>
</svg>
